HIERARCHY
ROOT Hips
{
	OFFSET 0.0000 0.0000 0.0000
	CHANNELS 6 Xposition Yposition Zposition Zrotation Xrotation Yrotation
	JOINT Ab
	{
		OFFSET -0.0000 8.1305 -0.0000
		CHANNELS 3 Zrotation Xrotation Yrotation
		JOINT Chest
		{
			OFFSET -0.0000 26.2902 -0.0000
			CHANNELS 3 Zrotation Xrotation Yrotation
			JOINT Neck
			{
				OFFSET -0.0000 26.2902 0.0000
				CHANNELS 3 Zrotation Xrotation Yrotation
				JOINT Head
				{
					OFFSET -0.0000 10.8167 0.0000
					CHANNELS 3 Zrotation Xrotation Yrotation
					End Site
					{
						OFFSET -0.0000 16.7167 0.0000
					}
				}
			}
			JOINT LeftCollar
			{
				OFFSET -0.0000 26.2902 0.0000
				CHANNELS 3 Zrotation Xrotation Yrotation
				JOINT LeftShoulder
				{
					OFFSET 19.6667 -0.0000 0.0000
					CHANNELS 3 Zrotation Xrotation Yrotation
					JOINT LeftElbow
					{
						OFFSET 27.2190 0.0000 0.0000
						CHANNELS 3 Zrotation Xrotation Yrotation
						JOINT LeftWrist
						{
							OFFSET 30.7431 0.0000 0.0000
							CHANNELS 3 Zrotation Xrotation Yrotation
							End Site
							{
								OFFSET 0.0000 -14.7500 0.0000
							}
						}
					}
				}
			}
			JOINT RightCollar
			{
				OFFSET -0.0000 26.2902 0.0000
				CHANNELS 3 Zrotation Xrotation Yrotation
				JOINT RightShoulder
				{
					OFFSET -19.6667 0.0000 0.0000
					CHANNELS 3 Zrotation Xrotation Yrotation
					JOINT RightElbow
					{
						OFFSET -27.2190 0.0000 0.0000
						CHANNELS 3 Zrotation Xrotation Yrotation
						JOINT RightWrist
						{
							OFFSET -30.7431 0.0000 0.0000
							CHANNELS 3 Zrotation Xrotation Yrotation
							End Site
							{
								OFFSET -0.0000 -14.7500 0.0000
							}
						}
					}
				}
			}
		}
	}
	JOINT LeftHip
	{
		OFFSET 11.8000 0.0000 0.0000
		CHANNELS 3 Zrotation Xrotation Yrotation
		JOINT LeftKnee
		{
			OFFSET -0.0000 -39.7832 0.0000
			CHANNELS 3 Zrotation Xrotation Yrotation
			JOINT LeftAnkle
			{
				OFFSET -0.0000 -41.7317 0.0000
				CHANNELS 3 Zrotation Xrotation Yrotation
				End Site
				{
					OFFSET -0.0000 -4.9167 16.7167
				}
			}
		}
	}
	JOINT RightHip
	{
		OFFSET -11.8000 0.0000 0.0000
		CHANNELS 3 Zrotation Xrotation Yrotation
		JOINT RightKnee
		{
			OFFSET -0.0000 -39.7832 0.0000
			CHANNELS 3 Zrotation Xrotation Yrotation
			JOINT RightAnkle
			{
				OFFSET -0.0000 -41.7317 0.0000
				CHANNELS 3 Zrotation Xrotation Yrotation
				End Site
				{
					OFFSET -0.0000 -4.9167 16.7167
				}
			}
		}
	}
}
MOTION
Frames: 23
Frame Time: 0.010000
-9.0884 88.2760 129.1949 0.6519 343.1374 181.2770 2.1482 350.1387 358.9167 6.9590 9.2185 358.1778 357.9077 336.1781 3.3445 354.4238 8.4258 4.1956 337.5529 356.5850 16.7644 333.2191 54.2677 331.5635 11.8221 350.4046 280.5016 93.3553 358.0673 353.4967 27.5650 355.8208 343.1852 43.0041 33.6167 351.0619 343.5412 349.9246 60.4357 270.9040 353.6475 15.0462 4.3046 357.5239 358.9956 0.8103 44.6135 5.2772 350.8622 354.6186 13.7373 356.1748 325.3245 8.7388 17.4435 44.6217 13.2524 342.8151 335.5204 308.3265 
-8.6508 88.1460 127.9798 0.6417 343.0994 181.0795 1.8833 350.2134 359.0591 7.5089 8.9884 358.3128 357.8820 336.5449 3.2629 354.4181 8.3973 4.1046 337.5220 356.6411 16.5961 331.8682 54.3085 333.1617 11.5193 350.8788 282.1596 93.8504 358.1047 353.6572 27.5581 355.8775 343.3286 42.5825 34.5892 351.8938 343.0039 349.6553 60.8187 270.4685 353.7692 14.6265 4.3255 355.7601 359.1282 0.7029 48.0201 5.2843 352.8205 354.7354 13.6860 356.8822 326.0591 9.5771 17.5500 44.6849 13.0734 342.1009 335.3445 307.8450 
-8.2781 88.0562 126.8387 0.6830 343.0640 181.2977 1.7989 350.3483 359.0295 7.7715 8.8904 358.2739 358.0739 336.4248 3.1798 354.3022 8.5969 3.9915 337.6246 356.7176 16.4813 330.7563 54.0894 334.3037 11.0009 351.6592 283.6702 95.5245 358.5944 353.8392 27.7119 355.8672 343.2314 41.6632 35.7038 353.2272 342.5507 349.3346 61.5164 269.6337 354.1494 13.9852 4.3395 353.9629 359.0041 0.6307 51.0661 4.8422 351.7795 354.0042 13.6646 357.2853 326.8677 9.9644 17.7368 44.6482 12.8020 341.3846 335.1811 307.4166 
-7.8428 88.0037 125.7952 0.7142 342.6842 181.2430 1.5220 350.3282 359.1188 8.2925 8.5866 358.3709 357.9339 336.5022 3.1812 354.6038 8.5756 4.0222 337.9249 356.7390 16.8973 329.9128 54.7433 334.6485 11.0522 351.6405 286.0235 94.5635 358.4658 353.1553 28.1265 355.8393 343.7920 40.3516 36.2148 353.3710 342.5025 349.0933 63.8879 268.7539 355.1053 13.2878 4.3806 351.6538 359.6065 1.1272 53.9557 4.0733 351.2057 353.3364 13.1557 357.9411 327.1577 10.8746 18.0016 44.8244 13.6332 340.2957 335.2967 305.7410 
-7.5138 87.9684 124.5795 0.3991 342.7466 180.8682 1.1750 350.4595 359.3440 8.4557 8.5655 358.6239 357.9712 336.7701 3.1898 354.6500 8.3495 3.9962 337.8413 356.6779 16.8783 328.7815 54.3407 336.2079 10.4825 352.5821 287.6310 94.8366 359.1229 352.8991 28.3201 355.8868 344.1670 39.6087 36.8136 353.9799 342.3856 348.6838 65.5045 267.8619 355.5019 12.8844 3.9480 349.8892 0.1773 1.5591 56.4280 3.9030 350.9631 353.0234 12.2664 358.2329 328.0626 11.7679 18.1920 44.7234 13.6420 339.5636 335.2476 305.0912 
-7.1052 87.9566 123.3766 0.4228 342.6729 180.8732 1.0318 350.4550 359.5120 8.6327 8.6005 358.7763 358.1603 336.6045 3.0566 354.4769 8.4177 3.8208 337.9282 356.7397 16.5753 327.3877 53.5825 337.8879 9.4675 353.8116 289.0497 95.9697 0.6106 352.9776 28.0405 355.8521 343.0867 38.2487 38.6213 357.6558 342.0283 348.3277 65.0365 266.8368 354.8655 12.2137 3.9326 347.7896 0.7007 2.0857 58.8699 2.7130 351.1191 352.4015 12.0120 358.7790 329.0716 12.5619 18.2755 44.2019 13.1314 339.1187 335.0860 304.8534 
-6.7205 88.0067 122.2132 0.2917 342.4943 180.6844 1.0725 350.4175 359.6369 8.3453 8.5256 358.9313 358.0655 336.7227 2.9715 354.8597 8.2258 3.7345 338.0531 356.8058 16.4103 326.2182 53.0067 339.5406 8.6020 354.5961 290.7739 95.4313 359.6734 351.0555 28.2764 355.7084 342.8547 36.9112 39.8530 359.4605 341.7086 347.8800 66.3682 267.8807 355.6640 11.9988 3.8015 345.5764 1.1513 2.1825 60.8988 3.3374 350.2244 353.1445 11.0722 359.1845 329.8352 12.6660 17.7829 44.0838 13.7241 338.5670 334.9957 304.4834 
-6.4277 88.0599 121.0508 0.0516 342.4185 180.4514 0.9575 350.5014 359.8907 8.2105 8.5063 359.1583 357.8922 336.6476 2.8848 355.1869 8.1303 3.6599 338.2090 356.8223 16.2689 324.7325 52.5623 341.1673 7.9401 355.1257 292.7531 94.5334 359.3926 349.1830 28.3126 355.6424 342.6970 35.6945 40.9463 1.1573 341.4377 347.3638 68.0810 267.5016 356.7261 11.2035 3.4663 343.4801 1.3887 1.5170 62.6656 3.7633 355.5394 352.7564 10.6636 359.3093 330.8006 12.5997 17.1354 43.7633 15.4406 338.1059 335.3815 303.6332 
-6.0958 88.1083 119.8319 0.1872 342.4942 180.6373 1.1077 350.6448 359.9557 8.0779 8.5615 359.3106 358.0434 336.4549 2.6891 354.9999 8.1379 3.4231 338.1833 356.8694 15.9397 324.3248 52.2025 342.5051 7.0908 355.8628 293.8427 93.2001 359.7491 347.1646 28.2782 355.5559 342.1339 34.4462 41.9185 3.0986 341.0895 346.7040 69.7350 267.6034 356.4743 11.6512 3.5050 341.4595 1.4966 1.2144 64.3817 2.8119 349.8803 351.7124 11.6053 359.6362 332.1632 12.2634 16.6778 43.0962 15.9031 337.4103 335.1883 303.2974 
-5.8194 88.2326 118.5838 359.9790 342.3791 180.4495 1.5620 350.8522 0.0288 7.1164 8.0813 359.4260 357.6406 336.7269 2.6297 355.8848 7.9245 3.4110 338.1644 356.8931 15.9295 323.8803 51.5144 344.4872 6.1596 356.5893 294.6034 92.6751 359.7730 345.8014 28.3744 355.4390 341.8532 33.4268 43.4432 4.6107 340.8280 346.1279 71.4856 266.1687 355.8487 11.5102 3.2445 339.4140 1.8475 0.6488 65.6172 2.8691 349.8165 351.8666 11.6884 359.6075 333.3631 12.0667 16.2425 42.2473 15.7939 337.3781 334.9216 303.9219 
-5.5784 88.4173 117.3005 359.5286 342.2606 180.1704 1.3007 350.8166 0.2445 6.8897 8.0409 359.6461 357.2332 336.7257 2.5801 356.3476 7.8293 3.4110 337.9508 356.8733 15.9569 323.5590 50.7728 346.2592 5.0095 357.4841 295.2413 93.3272 359.5241 344.4965 28.1948 355.4559 341.9117 32.6133 44.4226 5.7885 340.4809 345.3165 73.4750 266.2212 355.5160 11.9424 2.7294 337.4801 2.2773 0.2541 66.5045 2.4969 348.6801 350.0740 11.7536 359.2453 334.6527 11.7903 15.7960 41.3427 17.0231 337.0541 335.0550 303.5200 
-5.3953 88.5911 116.0150 359.3343 342.1759 180.3142 1.4739 350.8419 0.2646 6.3107 7.9238 359.7090 357.1666 336.5914 2.3885 356.4146 7.9183 3.2048 337.8364 356.8200 16.0383 324.0470 50.4892 347.3134 3.9389 358.1825 295.5937 93.3298 359.3250 342.8995 28.0536 355.4364 341.6847 32.0523 45.0043 6.8301 340.0806 344.3415 75.7406 267.6996 355.7831 12.3306 2.2978 335.4794 2.2342 359.4716 67.1405 3.0230 344.7033 349.0259 11.5585 358.8402 336.1657 11.1181 15.5693 40.0849 16.3404 337.0462 334.7540 304.5940 
-5.3953 88.5911 116.0150 359.3343 342.1759 180.3142 1.4739 350.8419 0.2646 6.3119 7.9241 359.7091 357.1610 336.5929 2.3908 356.4857 7.9081 3.2214 337.8272 356.8465 16.0430 324.0570 50.4582 347.3163 3.5850 358.0944 295.5714 93.0706 359.2878 342.3732 28.0526 355.4367 341.6906 32.0629 45.0009 6.7848 340.0718 344.4217 75.7722 267.5909 355.8269 12.2134 2.2978 335.4794 2.2342 359.4716 67.1405 3.0230 344.7032 349.0259 11.5585 358.8402 336.1657 11.1181 15.5693 40.0849 16.3405 337.0462 334.7540 304.5940 
-4.9931 89.0031 113.3633 358.4946 342.3762 179.8915 0.9644 351.3313 0.7356 5.8313 7.5765 0.2853 356.3377 336.8746 2.2089 357.4398 7.6587 3.1457 337.5119 356.7557 16.1382 323.5009 48.2051 351.1477 1.1686 0.4350 295.3751 95.4468 358.6958 340.5028 27.5238 355.5629 342.0232 30.9974 46.2386 8.1671 339.8007 342.8986 80.4424 267.0051 355.0591 12.5310 1.3062 332.3495 3.3857 0.4049 66.8377 0.5651 345.9569 349.3041 11.2795 357.9844 339.5811 9.9761 14.2213 37.5838 18.3963 338.4402 334.3967 305.7727 
-4.8535 89.2675 112.0241 358.0476 342.4132 179.7755 0.6693 351.4338 1.0921 5.5143 7.4315 0.6926 356.4124 337.1126 1.9154 357.1651 7.6104 2.7961 337.3852 356.7879 15.6362 323.7013 47.5505 352.7735 359.6544 1.2432 295.1276 95.2085 358.2893 338.8658 27.2463 355.5946 341.7291 30.8324 46.1872 8.7989 339.9607 342.5000 82.7558 265.6618 354.3917 12.4718 0.6551 330.8169 3.7527 359.4505 66.4421 2.1291 344.8000 348.6887 11.0129 357.4360 341.3683 9.3585 13.6442 36.0411 19.3487 338.7762 334.5618 305.9672 
-4.7134 89.5659 110.6756 357.6848 342.3736 179.9179 0.4525 351.5359 1.2032 5.1644 7.1919 0.8487 356.4243 337.1840 1.6555 357.2072 7.7081 2.5375 337.3105 356.8252 15.4788 324.0882 47.0022 354.0019 358.4040 1.8833 294.7611 95.0096 358.0614 338.0085 26.9983 355.6044 341.5693 30.5311 46.4928 9.3412 340.0791 341.9190 84.8734 264.1332 353.6831 13.0166 359.9469 329.1985 4.0149 359.7142 65.7918 1.7977 346.5532 348.3495 10.8789 356.9950 343.2680 8.8499 13.0431 34.1882 19.7405 339.5471 334.7492 306.7042 
-4.5763 89.8862 109.3096 357.2084 342.2950 179.8862 0.0624 351.6108 1.4068 4.9725 6.9291 1.1064 356.0848 337.2918 1.4647 357.5715 7.8410 2.4107 337.0971 356.8120 15.5303 324.5899 46.0792 355.2765 357.0156 2.8008 294.4098 93.6146 357.4833 336.4709 26.7005 355.6230 341.4304 29.8847 47.0607 10.2579 339.9398 340.9712 86.7672 264.6526 353.1454 12.1997 359.1757 327.7828 4.0968 359.1690 64.5110 2.5776 346.4356 348.2393 10.8272 356.5779 345.1471 8.2942 12.1103 32.3036 20.7957 340.4245 335.2763 307.1997 
-4.4274 90.2215 107.9267 356.7707 342.1757 179.9533 359.6920 351.6722 1.5711 4.6869 6.5856 1.3275 355.9646 337.4746 1.2472 357.7347 7.9482 2.1890 337.1108 356.8617 15.5175 324.7667 45.2121 356.5863 355.7948 3.5366 294.0537 92.9702 357.0883 335.7365 26.4397 355.6199 341.2044 29.4249 47.3068 11.1152 340.0638 340.6069 88.7397 263.6356 353.0249 10.3136 358.4126 326.4104 4.1842 359.1702 63.3281 2.2237 346.9584 348.0986 11.1445 356.2934 347.0099 8.2337 11.4165 30.2749 21.0017 341.7450 335.1030 307.6372 
-4.2882 90.5924 106.5136 356.5191 342.0137 180.1359 359.5900 351.6036 1.6880 4.2742 6.3533 1.4831 355.8474 337.5570 1.0480 357.9368 8.2895 2.0044 337.1827 356.8526 15.5017 324.9161 44.3306 357.8216 354.7016 4.1888 293.7446 92.2698 356.8776 335.3013 26.2993 355.5983 341.1008 29.0911 47.3837 11.6080 340.1848 340.0848 90.5980 264.0557 352.7680 9.7472 357.7582 325.1113 4.2299 359.0455 61.8154 2.2976 346.1124 346.8734 11.4152 356.2056 348.8397 8.4292 10.8652 28.1649 20.6894 343.1738 335.6181 308.4811 
-4.2668 90.9910 105.1185 355.7804 341.9877 179.8199 359.1640 351.7916 1.9786 3.8108 6.0037 1.8448 355.4038 337.8340 0.8929 358.5269 8.2747 1.9000 337.2319 356.8372 15.6300 324.8481 43.2323 359.2064 353.6018 4.9093 293.4990 91.6537 356.6606 334.8745 26.0629 355.6277 341.1469 28.6602 47.8947 12.2753 340.0950 339.2885 92.0753 264.5547 352.8101 9.2273 356.6102 324.2296 4.3185 358.8303 59.8556 2.7408 346.3639 346.5662 11.8169 355.5463 350.5080 8.4796 10.3838 26.4120 20.6669 344.7691 336.1765 309.2741 
-4.1891 91.3962 103.6427 355.3077 341.8529 179.6868 358.8588 351.7156 2.2201 3.4322 5.7547 2.1351 355.3049 338.0608 0.6709 358.5624 8.4107 1.6678 337.3095 356.8588 15.5115 324.8084 42.2269 0.5833 352.5321 5.6088 293.3437 91.0855 356.3942 334.4608 25.8991 355.6284 341.0268 28.4611 48.0159 12.6740 340.0599 338.8097 93.4905 264.5373 352.6122 8.2458 355.7852 323.4449 4.4998 358.7768 57.5478 2.8563 349.0426 347.4239 12.2586 355.1914 352.0909 8.7283 10.0158 24.6950 20.1321 346.3751 337.0287 310.2484 
-4.1457 91.8063 102.1233 354.8987 341.9728 179.4568 358.7483 351.8362 2.4918 2.9144 5.7023 2.4403 355.0281 338.0875 0.4686 358.9626 8.5470 1.4980 337.8176 356.9331 15.8454 324.3865 41.8432 1.3513 352.0413 5.6668 293.2833 90.1685 356.3441 334.3309 25.7669 355.6440 341.0733 28.3001 48.0468 12.9766 340.0537 338.3474 94.8863 265.0545 352.2792 6.5627 355.0124 323.0510 4.7599 358.9589 54.9678 3.1407 347.3975 347.3103 11.7021 354.8086 353.8668 9.0985 9.8471 23.0043 19.4289 348.2978 337.6870 311.2952 
-4.0249 92.1902 100.5789 354.6230 342.0449 179.1272 358.5092 351.9131 2.8376 2.7400 5.5179 2.8185 354.4598 337.9500 0.1871 359.6124 8.9789 1.2886 337.7768 356.8925 15.7469 324.3435 40.6733 2.7744 351.0866 6.4530 293.1004 90.0657 356.4657 333.9968 25.5768 355.6793 341.1323 28.1744 48.1443 13.2024 340.1296 337.9715 96.0537 264.9155 352.0828 5.0565 354.6128 322.7773 5.1316 358.8678 52.0946 3.0544 351.2853 348.9860 12.1907 354.6382 355.4429 9.1320 9.4089 21.6012 19.1947 350.1682 338.7630 312.4300 
